<?xml version="1.0" encoding="utf-8"?>
<?xml-stylesheet type="text/css" href="dodge.css" ?>
<!-- Generator: Adobe Illustrator 27.6.1, SVG Export Plug-In . SVG Version: 6.00 Build 0)  -->
<svg class="car-up" version="1.1" xmlns="http://www.w3.org/2000/svg" xmlns:xlink="http://www.w3.org/1999/xlink" x="0px" y="0px"
	 viewBox="0 0 1024 1024" style="enable-background:new 0 0 1024 1024;" xml:space="preserve">
<g id="Layer_2">
</g>
<g id="Layer_3">
</g>
<g id="Layer_1">
	<g>
		<polyline class="st0" points="753.06,562.39 752.23,580.5 340.23,569.5 341.23,550.5 		"/>
		<path class="st0" d="M181.23,541.5l-1,22c0,0-87.86-20.09-95.67-23.43s-17.57-6.15-22.74-30.98"/>
		<path class="st0" d="M956.26,559.33c0,0,24.47,9.75,18.89,13.1s-54.69,2.23-54.69,2.23v-12.28"/>
		<path class="st1" d="M920.46,562.39h33.48c0,0,29.02-42.41,29.02-54.69c0-12.28-5.58-22.32-5.58-22.32V458.6
			c0,0-6.7-10.04-30.13-16.74c-23.44-6.7-30.13-10.04-30.13-10.04s-12.28-6.7-25.67-8.93s-178.56-15.62-178.56-15.62
			s-46.87-26.78-60.27-34.6c-13.39-7.81-53.57-29.02-80.35-35.71c-26.78-6.7-199.77-16.74-238.83-3.35s-87.05,43.52-112.72,47.99
			c-25.67,4.46-100.44,7.81-120.53,8.93S73.4,396.1,73.4,396.1l-21.2,47.99l-6.7,5.58v18.97c0,0,2.23,1.12,4.46,7.81
			s5.58,26.78,14.51,35.71c8.93,8.93,116.62,29.57,116.62,29.57s5.58-84.82,85.93-81.47c78.09,3.25,74.77,89.28,74.77,89.28
			l411.25,11.72c0,0,3.91-104.35,88.17-99.33C917.11,466.47,916,527.79,920.46,562.39z"/>
		<path class="st2" d="M679.4,413.95l-239.95-10.04l-89.28-22.32c0,0,42.41-36.83,64.73-39.06c22.32-2.23,141.74,1.12,162.94,8.93
			S679.4,413.95,679.4,413.95z"/>
		<path class="st2" d="M965.73,451l-109.04-4.21L888.73,465l88.81,8.85l0.19-14.85C977.73,459,971.73,451,965.73,451z"/>
		<path class="st2" d="M171.73,539c0,0-1-13,3-26s10-22,10-22L45.5,468.64c0,0,4.23,5.36,5.23,10.36s5.21,30.62,15.11,34.81
			C75.73,518,171.73,539,171.73,539z"/>
		<polygon class="st2" points="341.73,550 752.73,561 754.73,543.98 340.73,533 		"/>
		<path class="st3" d="M920.23,562.5c0,0,0.68-30.28-9.16-52.14c-9.84-21.86-24.22-49.65-73.53-48.26
			c-49.31,1.39-70.95,36.71-78.13,62.55c-7.18,25.84-5.62,34.47-5.62,34.47L920.23,562.5z"/>
		<path class="st3" d="M341.73,550c0,0,1.84-20.14-8-42c-9.84-21.86-26-48-73-47c-49.32,1.05-68.14,35.82-75.32,61.66
			c-7.18,25.84,7.32,17.34,7.32,17.34L341.73,550z"/>
		<path class="st4" d="M450.73,401l6-36c0,0,69,1,88,7s59,36,59,36L450.73,401z"/>
		<polygon class="st4" points="423.73,353 393.73,382 415.73,389 		"/>
		<path class="st5" d="M458.73,352c0,0,111,6,114,7s49,29,49,29s7,0,13,2s9,9,9,9l1,3l15,11l19.13,0.98L650.73,396l-30-21
			l-41.45-22.55c0,0-7.55-3.45-8.55-3.45s-49-5-49-5l-52-1h-10L458.73,352z"/>
		<polygon class="st5" points="425.73,343 423.73,353 394.3,381.55 415.88,388.06 414.09,397.77 349.73,382 364.17,370.45 
			380.73,358 393.73,350 402.98,345.94 409.73,343 		"/>
		<polygon class="st4" points="710.73,408 702.73,410 697.73,413 641.73,377 617.73,361 605.73,353 606.73,350 695.73,397 
			712.73,407 		"/>
		<path class="st4" d="M954.73,444.23l13,5.77l-360-11l0,0c1.28-1.28,3.02-1.98,4.83-1.94"/>
		<path class="st6" d="M570.05,347.47c-8.68-3.53-67.32-6.47-67.32-6.47s-85-3-91-2s-10,3-26.36,12.3
			c-16.36,9.3-40.09,29.62-40.09,29.62l3.45,1.09c0,0,7-6,24-19s31-19,39-21s60-1,87,0c27,1,74,6,74,6"/>
		<polygon class="st4" points="919.73,434 913.19,429.94 757.73,417 873.73,430 		"/>
		<path class="st0" d="M930.22,561.94c0,0,3.51-41.94-17.49-72.94s-58-39-84-38s-59,18-72,47s-15.06,45.81-15.06,45.81l-2.43,16.98
			l14.49,0.21c0,0-2.06-17.11,7.47-40.55c9.53-23.45,28.6-54.96,63.06-57.7C858.73,460,877.73,468,887.73,476
			s20.53,23.74,25.77,40.87c5.23,17.13,7.23,45.13,7.23,45.13L930.22,561.94z"/>
		<path class="st0" d="M356.73,549l-14.13,0.81c0,0-0.87-28.81-9.87-47.81s-27-40-63-42s-64,15-76,39s-13,43-13,43l-9-3
			c0,0,2-32,13-49s33-43,83-40s67,26,78,47S356.73,549,356.73,549z"/>
		<path class="st0" d="M342.73,490L752,507.89c0,0-4.32,10.64-6.3,17.87c-1.98,7.23-3.98,18.23-3.98,18.23l-385.64-10.23
			c0,0-3.36-17.77-5.36-24.77S342.73,490,342.73,490z"/>
		<path class="st4" d="M346.73,382c0,0,61.85,21.98,92,26c30,4,194,9,194,9l2.17-4.77l-110.47-4.94l-84.7-2.3L346.73,382z"/>
		<polygon class="st4" points="651.23,417.5 649.23,413.5 680.23,414.5 686.23,418.5 		"/>
		<g>
			<path class="st7" d="M154.87,386.05c0,0-79.24-7.81-81.47-6.7c-2.23,1.12-1.03,17.75-1.03,17.75l4.86-3.61l13-2l29-2l38-2
				L154.87,386.05z"/>
			<path class="st3" d="M154.87,386.05c-23.15-1.63-51.6-4.15-74.62-5.66c-2.11-0.13-4.55-0.21-6.4-0.19
				c-0.57,1.18-0.66,3.02-0.75,4.49c-0.17,4.07,0.01,8.24,0.24,12.34l-1.56-0.72l4.88-3.59c0,0,0.19-0.14,0.19-0.14
				s0.23-0.03,0.23-0.03s13.01-1.95,13.01-1.95c0.03,0,16.78-1.1,16.82-1.09c16.15-1.02,34.05-1.57,50.31-2.08
				c0,0-0.03,0.13-0.03,0.13S154.87,386.05,154.87,386.05L154.87,386.05z M154.87,386.05c0,0,2.4,1.39,2.4,1.39s0.2,0.11,0.2,0.11
				s-0.23,0.02-0.23,0.02l-16.74,1.22c-16.12,1.02-34,2.41-50.2,3.61c0.37-0.04-12.99,2.04-12.92,2.04c0,0,0.42-0.18,0.42-0.18
				c-0.94,0.71-5.4,4.03-6.29,4.7c-0.35-4.79-0.61-9.55-0.35-14.38c0.13-1.66,0.19-3.31,0.83-4.93c0.17-0.31,0.28-0.66,0.79-1.02
				c0.31-0.26,0.92-0.29,1.23-0.31c2.22-0.05,4.24,0.11,6.35,0.23c8.32,0.56,16.61,1.27,24.89,2.07
				C119.84,382.11,140.51,384.21,154.87,386.05L154.87,386.05z"/>
		</g>
		<path class="st8" d="M920.46,562.39h33.48c0,0,29.02-42.41,29.02-54.69c0-12.28-5.58-22.32-5.58-22.32V458.6
			c0,0-6.7-10.04-30.13-16.74c-23.44-6.7-30.13-10.04-30.13-10.04s-12.28-6.7-25.67-8.93s-178.56-15.62-178.56-15.62
			s-46.87-26.78-60.27-34.6c-13.39-7.81-53.57-29.02-80.35-35.71c-26.78-6.7-199.77-16.74-238.83-3.35s-87.05,43.52-112.72,47.99
			c-25.67,4.46-100.44,7.81-120.53,8.93S73.4,396.1,73.4,396.1l-21.2,47.99l-6.7,5.58v18.97c0,0,2.23,1.12,4.46,7.81
			s5.58,26.78,14.51,35.71c8.93,8.93,116.62,29.57,116.62,29.57s5.58-84.82,85.93-81.47c78.09,3.25,74.77,89.28,74.77,89.28
			l411.25,11.72c0,0,3.91-104.35,88.17-99.33C917.11,466.47,916,527.79,920.46,562.39z"/>
		<path class="st9" d="M679.4,413.95l-239.95-10.04l-89.28-22.32c0,0,42.41-36.83,64.73-39.06c22.32-2.23,141.74,1.12,162.94,8.93
			S679.4,413.95,679.4,413.95z"/>
		<g>
			<path class="st10" d="M800.23,456.5c-82.19-3.4-194.32-8.49-276.46-12.18c-0.01,0-92.19-4.24-92.21-4.25
				c-16.15-2.95-32.32-5.83-48.5-8.6c-16.18-2.67-32.35-5.63-48.66-7.45c-32.74-2.43-65.59-3.3-98.39-4.52
				c-49.23-1.43-98.48-3.28-147.74-2.83c-2.05,0.05-4.1,0.12-6.15,0.26c-1.01,0.09-2.07,0.13-3.01,0.42
				c-0.9,0.42-1.67,1.14-2.38,1.86c-8.04,9.33-13.33,20.73-18.96,31.6c-0.02-0.02-5.57-6.71-5.58-6.73c-0.01,0,5.67,6.72,5.56,6.69
				c5.58-10.91,10.83-22.31,18.84-31.69c0.72-0.73,1.48-1.45,2.44-1.91c1.02-0.31,2.05-0.35,3.07-0.45c2.05-0.15,4.1-0.23,6.16-0.29
				c16.42-0.39,32.84-0.14,49.27,0.06c57.47,0.96,114.93,2.6,172.34,5.25c12.3,0.65,24.65,1.11,36.83,3.07
				c28.34,4.19,57,9.32,84.95,14.36C534.95,443.86,695.89,451.54,800.23,456.5L800.23,456.5z"/>
		</g>
		<path class="st11" d="M966.23,449.82c0,0-21.22,54.53-24.56,55.65s-31.76,0.11-31.76,0.11"/>
		<path class="st11" d="M745.78,410.41l-46.47,3.4c-1.33,0.1-2.66-0.25-3.77-0.99l-94.26-62.47l-0.25-3.19"/>
		<line class="st11" x1="350.17" y1="381.59" x2="230.79" y2="379.44"/>
		<path class="st11" d="M198.39,492.08c-2.36,0.44-151.78-23.44-151.78-23.44"/>
		<line class="st11" x1="453.33" y1="341.83" x2="443.23" y2="403.5"/>
		<line class="st11" x1="459.89" y1="342.68" x2="450.61" y2="403.91"/>
		<path class="st12" d="M608.34,411.35c-1.48-0.75-46.12-36.46-68.45-40.92c-22.32-4.46-83.43-5.24-83.43-5.24"/>
		<path class="st11" d="M426.26,342.11c-0.2,1.53-12.54,54.99-12.54,54.99"/>
		<path class="st13" d="M660.43,412.84c0,0-78.12-51.34-87.05-53.57c-8.93-2.23-114.63-6.9-114.63-6.9"/>
		<polyline class="st11" points="423.98,351.8 393.7,381.59 415.43,388.84 		"/>
		<path class="st11" d="M680.51,413.95c0,0,35.71,25.67,36.83,31.25c1.12,5.58-5.58,89.28-7.81,92.63s-12.57,22.55-12.57,22.55"/>
		<polyline class="st11" points="753.06,562.39 752.23,580.5 340.23,569.5 341.23,550.5 		"/>
		<path class="st9" d="M181.23,541.5l-1,22c0,0-87.86-20.09-95.67-23.43s-17.57-6.15-22.74-30.98"/>
		<path class="st11" d="M439.45,405.03c0,0-4.46,18.97-4.46,33.48c0,14.51,4.46,78.12,15.62,113.83"/>
		<g>
			<path class="st3" d="M921.68,434.72c-67.12-6.29-142.35-14.07-209.34-21.66C779.47,419.35,854.69,427.14,921.68,434.72
				L921.68,434.72z"/>
		</g>
		<path class="st11" d="M956.26,559.33c0,0,24.47,9.75,18.89,13.1s-54.69,2.23-54.69,2.23v-12.28"/>
		<path class="st14" d="M644.8,403.91l-10.04,7.81h-14.51l1.12-23.44C621.36,388.29,642.57,386.05,644.8,403.91z"/>
		<path class="st15" d="M634.84,412.3l-4.55,12.81c0,0,5.58,2.23,13.39,2.23c7.81,0,10.04-4.46,10.04-4.46l-8.93-18.97"/>
		<path class="st16" d="M103.18,497.66h39.76c1.66,0,3-1.34,3-3v-0.7c0-1.66-1.34-3-3-3h-39.76c-1.66,0-3,1.34-3,3v0.7
			C100.18,496.31,101.52,497.66,103.18,497.66z"/>
		<ellipse class="st17" cx="467.91" cy="426.79" rx="17.3" ry="7.25"/>
		<path class="st18" d="M452.11,428.46h31.6c0.83,0,1.5-0.67,1.5-1.5v-0.35c0-0.83-0.67-1.5-1.5-1.5h-31.6c-0.83,0-1.5,0.67-1.5,1.5
			v0.35C450.61,427.79,451.28,428.46,452.11,428.46z"/>
		<path class="st11" d="M927.92,522.21h27.48c1.66,0,3-1.34,3-3v-0.7c0-1.66-1.34-3-3-3h-27.48c-1.66,0-3,1.34-3,3v0.7
			C924.92,520.87,926.27,522.21,927.92,522.21z"/>
		<line class="st11" x1="919.78" y1="559.52" x2="904.83" y2="559.52"/>
		<line class="st11" x1="773.04" y1="557.53" x2="753.38" y2="557.53"/>
		<line class="st11" x1="341.54" y1="545.47" x2="330.08" y2="545.47"/>
		<path class="st11" d="M195.04,540.07c-1.12,0-13.39,0-13.39,0"/>
		<g>
			<path class="st3" d="M712.88,408.37c-5.46,0.97-11.32,1.78-15.62,5.58C700.58,409.08,707.35,407.91,712.88,408.37L712.88,408.37z
				"/>
		</g>
		<g>
			<path class="st3" d="M600.16,349.23c0,0-38.01-9.8-38.01-9.8c-20.68-1.09-41.95-2.12-62.83-3c-52.34-1.7-105.01-5.95-157.09,1.41
				c-10.41,1.3-20.8,2.8-31.12,4.69c25.75-4.96,51.88-8.27,78.09-9.44c15.73-0.54,31.51-0.18,47.23,0.16
				c41.97,1.06,83.88,3.33,125.79,5.67C562.28,338.92,600.11,349.22,600.16,349.23L600.16,349.23z"/>
		</g>
		<g>
			<path class="st19" d="M576.72,350.34c-14.56-4.81-29.87-6.88-45.14-7.7c-35.66-2.04-71.37-3.68-107.09-3.78
				c-3.17,0.01-6.39,0.09-9.55,0.25c-1.23,0.13-2.54,0.18-3.75,0.46c0,0-1.82,0.5-1.82,0.5c-4.68,1.57-9.51,3.99-13.89,6.28
				c-17.79,9.78-35.19,20.99-49.52,35.49c0,0-0.14-0.57-0.14-0.57c11.53,3.83,23.12,7.5,34.73,11.08
				c17.43,5.29,34.92,10.54,52.77,14.19c17.97,3.02,36.3,3.18,54.45,4.35c48.57,2.4,97.16,4.19,145.75,5.95
				c-48.61-1.44-97.21-3.09-145.78-5.43c-18.18-1.14-36.54-1.27-54.55-4.26c-29.76-6.29-58.73-15.79-87.61-25.22
				c0,0-0.53-0.18-0.53-0.18l0.38-0.4c14.41-14.54,31.87-25.74,49.76-35.53c4.43-2.29,9.27-4.72,14-6.29c0,0,1.87-0.5,1.87-0.5
				c1.23-0.28,2.58-0.33,3.84-0.47c3.18-0.14,6.41-0.23,9.58-0.23c35.73,0.19,71.45,1.8,107.11,4.06
				C546.87,343.3,562.19,345.45,576.72,350.34L576.72,350.34z"/>
		</g>
		<line class="st20" x1="752.34" y1="573.94" x2="341.23" y2="562.5"/>
		<path class="st20" d="M179.73,557c0,0-92.94-21.11-111.47-30.55"/>
		<g>
			<path class="st3" d="M356.23,548.5c0.04-24.51-6.51-50.12-22.24-69.32c-13.85-17.07-34.76-26.27-56.34-28.4
				c-3.79-0.54-7.72-0.53-11.55-0.79c-3.59,0.06-8.01-0.07-11.57,0.28c-8.83,0.47-17.69,2.13-26.11,4.79
				c-0.85,0.29-4.52,1.71-5.42,2.02c-2.09,0.82-4.26,1.96-6.32,2.87c-1.82,1.09-4.26,2.27-6.01,3.47
				c-14.43,9.06-25.24,23.21-31.51,38.96c-4.62,11.47-7.43,23.74-7.94,36.11c0.34-12.4,3-24.73,7.48-36.29
				c6.21-15.87,17.08-30.21,31.57-39.4c1.76-1.21,4.21-2.42,6.05-3.53c2.09-0.93,4.26-2.09,6.36-2.93c0.87-0.37,4.7-1.75,5.46-2.07
				c8.48-2.72,17.4-4.43,26.31-4.95c3.58-0.36,8.05-0.26,11.66-0.33c3.86,0.24,7.81,0.27,11.63,0.83
				c15.42,1.65,30.76,6.76,43.29,16.04C346.43,484.74,356.82,517.87,356.23,548.5L356.23,548.5z"/>
		</g>
		<g>
			<path class="st3" d="M929.23,560.5c1.51-26.73-4.11-55.19-20.7-76.71c-12.43-16.19-31.47-26.17-51.36-29.71
				c-64.33-11.87-102.45,24.07-114.36,85.28c-1.27,6.65-2.22,13.37-2.57,20.14c0.28-6.77,1.15-13.51,2.34-20.18
				c11.14-61.51,50.48-98.29,114.77-86.15C910.74,462.89,932.69,510.03,929.23,560.5L929.23,560.5z"/>
		</g>
		<g>
			<path class="st3" d="M888.23,464.5c28.48,2.18,60.08,5.35,88.46,8.84C948.18,471.14,916.59,468,888.23,464.5L888.23,464.5z"/>
		</g>
		<line class="st11" x1="620.09" y1="408.83" x2="451.24" y2="401.17"/>
		<g>
			<path class="st21" d="M608.23,439"/>
		</g>
		<g>
			<path class="st21" d="M887.23,448.5"/>
		</g>
		<g class="right-circle-disk">
			<circle class="st22" cx="838.99" cy="551.07" r="75.07"/>
			<g>
				<circle class="st23" cx="840.23" cy="550.45" r="60.18"/>
				<path class="st24" d="M882.78,593c16.95-16.68,22.29-43.66,12.76-65.46c-16.3-38.81-67.53-48.86-97.16-18.93
					c-29.92,29.64-19.88,80.85,18.94,97.16C839.12,615.29,866.11,609.94,882.78,593L882.78,593z M882.78,593
					c-16.66,17.14-43.66,22.49-65.7,13.34c-40.17-16.31-50.71-68.45-20.1-99.15c30.71-30.6,82.84-20.06,99.15,20.11
					C905.27,549.34,899.93,576.34,882.78,593L882.78,593z"/>
			</g>
			<circle class="st25" cx="843.33" cy="552.31" r="54.59"/>
			<circle class="st26" cx="843.05" cy="550.97" r="41.58"/>
			<g>
				<circle class="st27" cx="841.47" cy="551.69" r="24.13"/>
				<path class="st28" d="M817.34,551.69c0.12,21.32,25.9,31.87,40.89,16.76c9.1-8.84,9.1-24.68,0-33.52
					C843.24,519.82,817.46,530.37,817.34,551.69L817.34,551.69z M817.34,551.69c0-21.53,26.1-32.47,41.49-17.36
					c9.6,9.22,9.6,25.51,0,34.72C843.44,584.15,817.34,573.21,817.34,551.69L817.34,551.69z"/>
			</g>
			<circle class="st29" cx="841.47" cy="549.82" r="16.13"/>
			<circle class="st30" cx="840.23" cy="537.42" r="2.48"/>
			<circle class="st30" cx="829.06" cy="546.1" r="2.48"/>
			<circle class="st30" cx="835.27" cy="557.27" r="2.48"/>
			<circle class="st30" cx="848.92" cy="557.27" r="2.48"/>
			<circle class="st30" cx="851.4" cy="543.62" r="2.48"/>
			<polyline class="st31" points="836.63,565.41 822.37,602.64 805.66,591.71 831.16,562.64 			"/>
			<polyline class="st31" points="825.88,547.18 790.6,539.9 798.04,522.53 827.52,541.61 			"/>
			<polyline class="st31" points="855.24,542.22 894.82,534.94 886.14,517.57 852.64,537.42 			"/>
			<polyline class="st31" points="837.42,533.75 827.82,498.95 846.43,497.71 843.15,532.74 			"/>
			<polyline class="st31" points="855.12,559.75 887.38,584.57 876.21,596.97 848.92,564.71 			"/>
			<g>
				<path class="st32" d="M819.14,486.55c-17.23,7.84-33.58,20.86-40.04,39.19c-0.99,2.57-1.56,5.26-2.15,7.96
					C779.5,511.14,798.79,494.1,819.14,486.55L819.14,486.55z"/>
			</g>
			<g>
				<path class="st3" d="M889.6,497.36c-1.4,2.68-3.33,4.93-5.77,6.71C885.22,501.39,887.16,499.15,889.6,497.36L889.6,497.36z"/>
			</g>
			<g>
				<path class="st3" d="M883.39,491.16c-1.4,2.68-3.33,4.93-5.77,6.71C879.02,495.19,880.96,492.94,883.39,491.16L883.39,491.16z"
					/>
			</g>
			<g>
				<path class="st3" d="M894.56,503.56c-1.4,2.68-3.33,4.93-5.77,6.71C890.19,507.59,892.12,505.35,894.56,503.56L894.56,503.56z"
					/>
			</g>
			<g>
				<path class="st3" d="M898.28,508.53c-1.4,2.68-3.33,4.93-5.77,6.71C893.91,512.56,895.84,510.31,898.28,508.53L898.28,508.53z"
					/>
			</g>
			<g>
				<path class="st3" d="M902,514.73c-1.4,2.68-3.33,4.93-5.77,6.71C897.63,518.76,899.57,516.52,902,514.73L902,514.73z"/>
			</g>
			<g>
				<path class="st3" d="M905.73,520.93c-1.4,2.68-3.33,4.93-5.77,6.71C901.35,524.96,903.29,522.72,905.73,520.93L905.73,520.93z"
					/>
			</g>
			<g>
				<path class="st3" d="M792.82,597.86c-1.4,2.68-3.33,4.93-5.77,6.71C788.44,601.89,790.38,599.65,792.82,597.86L792.82,597.86z"
					/>
			</g>
			<g>
				<path class="st3" d="M787.86,591.66c-1.4,2.68-3.33,4.93-5.77,6.71C783.48,595.69,785.42,593.44,787.86,591.66L787.86,591.66z"
					/>
			</g>
			<g>
				<path class="st3" d="M782.89,585.45c-1.4,2.68-3.33,4.93-5.77,6.71C778.52,589.48,780.45,587.24,782.89,585.45L782.89,585.45z"
					/>
			</g>
			<g>
				<path class="st3" d="M779.17,579.25c-1.4,2.68-3.33,4.93-5.77,6.71C774.8,583.28,776.73,581.04,779.17,579.25L779.17,579.25z"/>
			</g>
			<g>
				<path class="st3" d="M799.02,602.82c-1.4,2.68-3.33,4.93-5.77,6.71C794.65,606.85,796.58,604.61,799.02,602.82L799.02,602.82z"
					/>
			</g>
			<g>
				<path class="st3" d="M806.47,609.03c-1.4,2.68-3.33,4.93-5.77,6.71C802.09,613.06,804.03,610.81,806.47,609.03L806.47,609.03z"
					/>
			</g>
			<g>
				<path class="st3" d="M813.91,612.75c-1.4,2.68-3.33,4.93-5.77,6.71C809.54,616.78,811.47,614.54,813.91,612.75L813.91,612.75z"
					/>
			</g>
			<circle class="st33" cx="843.33" cy="552.31" r="54.59"/>
			<g>
				<path class="st34" d="M902.62,581.57c-9.22,19.56-28.05,34.46-49.15,39.12c0,0-4.22,0.91-4.22,0.91c2.47-0.76,5.9-1.5,8.26-2.42
					c0.8-0.29,4.35-1.58,5.05-1.83c1.79-0.82,4.05-1.89,5.84-2.7c1.74-1,4.86-2.59,6.5-3.73
					C886.32,603.61,896.1,593.46,902.62,581.57L902.62,581.57z"/>
			</g>
		</g>
		<g class="left-circle-disk">
			<circle class="st22" cx="261.99" cy="549.07" r="75.07"/>
			<g>
				<circle class="st23" cx="263.23" cy="548.45" r="60.18"/>
				<path class="st24" d="M305.78,591c16.95-16.68,22.29-43.66,12.76-65.46c-16.3-38.81-67.53-48.86-97.16-18.93
					c-29.92,29.64-19.88,80.85,18.94,97.16C262.12,613.29,289.11,607.94,305.78,591L305.78,591z M305.78,591
					c-16.66,17.14-43.66,22.49-65.7,13.34c-40.17-16.31-50.71-68.45-20.1-99.15c30.71-30.6,82.84-20.06,99.15,20.11
					C328.27,547.34,322.93,574.34,305.78,591L305.78,591z"/>
			</g>
			<circle class="st25" cx="266.33" cy="550.31" r="54.59"/>
			<circle class="st26" cx="266.05" cy="548.97" r="41.58"/>
			<g>
				<circle class="st27" cx="264.47" cy="549.69" r="24.13"/>
				<path class="st28" d="M240.34,549.69c0.12,21.32,25.9,31.87,40.89,16.76c9.1-8.84,9.1-24.68,0-33.52
					C266.24,517.82,240.46,528.37,240.34,549.69L240.34,549.69z M240.34,549.69c0-21.53,26.1-32.47,41.49-17.36
					c9.6,9.22,9.6,25.51,0,34.72C266.44,582.15,240.34,571.21,240.34,549.69L240.34,549.69z"/>
			</g>
			<circle class="st29" cx="264.47" cy="547.82" r="16.13"/>
			<circle class="st30" cx="263.23" cy="535.42" r="2.48"/>
			<circle class="st30" cx="252.06" cy="544.1" r="2.48"/>
			<circle class="st30" cx="258.27" cy="555.27" r="2.48"/>
			<circle class="st30" cx="271.92" cy="555.27" r="2.48"/>
			<circle class="st30" cx="274.4" cy="541.62" r="2.48"/>
			<polyline class="st31" points="259.63,563.41 245.37,600.64 228.66,589.71 254.16,560.64 			"/>
			<polyline class="st31" points="248.88,545.18 213.6,537.9 221.04,520.53 250.52,539.61 			"/>
			<polyline class="st31" points="278.24,540.22 317.82,532.94 309.14,515.57 275.64,535.42 			"/>
			<polyline class="st31" points="260.42,531.75 250.82,496.95 269.43,495.71 266.15,530.74 			"/>
			<polyline class="st31" points="278.12,557.75 310.38,582.57 299.21,594.97 271.92,562.71 			"/>
			<g>
				<path class="st32" d="M242.14,484.55c-17.23,7.84-33.58,20.86-40.04,39.19c-0.99,2.57-1.56,5.26-2.15,7.96
					C202.5,509.14,221.79,492.1,242.14,484.55L242.14,484.55z"/>
			</g>
			<g>
				<path class="st3" d="M312.6,495.36c-1.4,2.68-3.33,4.93-5.77,6.71C308.22,499.39,310.16,497.15,312.6,495.36L312.6,495.36z"/>
			</g>
			<g>
				<path class="st3" d="M306.39,489.16c-1.4,2.68-3.33,4.93-5.77,6.71C302.02,493.19,303.96,490.94,306.39,489.16L306.39,489.16z"
					/>
			</g>
			<g>
				<path class="st3" d="M317.56,501.56c-1.4,2.68-3.33,4.93-5.77,6.71C313.19,505.59,315.12,503.35,317.56,501.56L317.56,501.56z"
					/>
			</g>
			<g>
				<path class="st3" d="M321.28,506.53c-1.4,2.68-3.33,4.93-5.77,6.71C316.91,510.56,318.84,508.31,321.28,506.53L321.28,506.53z"
					/>
			</g>
			<g>
				<path class="st3" d="M325,512.73c-1.4,2.68-3.33,4.93-5.77,6.71C320.63,516.76,322.57,514.52,325,512.73L325,512.73z"/>
			</g>
			<g>
				<path class="st3" d="M328.73,518.93c-1.4,2.68-3.33,4.93-5.77,6.71C324.35,522.96,326.29,520.72,328.73,518.93L328.73,518.93z"
					/>
			</g>
			<g>
				<path class="st3" d="M215.82,595.86c-1.4,2.68-3.33,4.93-5.77,6.71C211.44,599.89,213.38,597.65,215.82,595.86L215.82,595.86z"
					/>
			</g>
			<g>
				<path class="st3" d="M210.86,589.66c-1.4,2.68-3.33,4.93-5.77,6.71C206.48,593.69,208.42,591.44,210.86,589.66L210.86,589.66z"
					/>
			</g>
			<g>
				<path class="st3" d="M205.89,583.45c-1.4,2.68-3.33,4.93-5.77,6.71C201.52,587.48,203.45,585.24,205.89,583.45L205.89,583.45z"
					/>
			</g>
			<g>
				<path class="st3" d="M202.17,577.25c-1.4,2.68-3.33,4.93-5.77,6.71C197.8,581.28,199.73,579.04,202.17,577.25L202.17,577.25z"/>
			</g>
			<g>
				<path class="st3" d="M222.02,600.82c-1.4,2.68-3.33,4.93-5.77,6.71C217.65,604.85,219.58,602.61,222.02,600.82L222.02,600.82z"
					/>
			</g>
			<g>
				<path class="st3" d="M229.47,607.03c-1.4,2.68-3.33,4.93-5.77,6.71C225.09,611.06,227.03,608.81,229.47,607.03L229.47,607.03z"
					/>
			</g>
			<g>
				<path class="st3" d="M236.91,610.75c-1.4,2.68-3.33,4.93-5.77,6.71C232.54,614.78,234.47,612.54,236.91,610.75L236.91,610.75z"
					/>
			</g>
			<circle class="st33" cx="266.33" cy="550.31" r="54.59"/>
			<g>
				<path class="st34" d="M325.62,579.57c-9.22,19.56-28.05,34.46-49.15,39.12c0,0-4.22,0.91-4.22,0.91c2.47-0.76,5.9-1.5,8.26-2.42
					c0.8-0.29,4.35-1.58,5.05-1.83c1.79-0.82,4.05-1.89,5.84-2.7c1.74-1,4.86-2.59,6.5-3.73
					C309.32,601.61,319.1,591.46,325.62,579.57L325.62,579.57z"/>
			</g>
		</g>
		<g>
			<path class="st35" d="M613.73,370c-1.1-1.17-2.63-1.9-3.95-2.82c-4.13-2.57-8.36-5.01-12.6-7.4c-5.65-3.11-11.37-6.22-17.35-8.61
				c-12.14-4.45-25.22-5.74-37.96-7.79c13.07,0.49,26.25,1.45,38.69,5.93c6.12,2.5,11.84,5.7,17.4,9.13
				c4.17,2.58,8.23,5.32,12.11,8.31C611.32,367.78,612.78,368.68,613.73,370L613.73,370z"/>
		</g>
		<g class="st36">
			<path class="st37" d="M338.73,395c-47.79,1.72-96.24,1.4-144-1C242.52,392.26,290.96,392.62,338.73,395L338.73,395z"/>
		</g>
		<g class="st36">
			<path class="st21" d="M444.73,426"/>
		</g>
	</g>
</g>
</svg>
