<svg xmlns="http://www.w3.org/2000/svg" xmlns:xlink="http://www.w3.org/1999/xlink" version="1.1" xml:space="preserve" preserveAspectRatio="xMinYMin meet" viewBox="36.23 288.69 943.93 283.31">
<g id="Layer_2">
	<path class="st0" d="M102.93,534.68c0,0-43.3-4.68-49.15-11.7c-5.85-7.02-15.21-33.94-16.38-47.98   c-1.17-14.04-1.17-21.07-1.17-21.07l5.85-3.51l37.45,12.87l3.69,57.92L102.93,534.68z"/>
	<path class="st1" d="M278.51,311.64c0,0,44.44-14.36,121.68-20.21s129.9-2.34,170.86,10.53c40.96,12.87,198.1,75.8,198.1,75.8   L703.56,380l-78.85-13.42L426.8,350.64C426.8,350.64,345.45,330.29,278.51,311.64z"/>
	<path d="M264.54,540.93l-107.38,1.36l-68.27-9.67l-12.87-15.49c0,0,14.2-111.18,12.87-112.16s68.27-14.04,68.27-14.04l83.09,11.94   l42.91,89.68L264.54,540.93z"/>
	<polygon points="922.51,535.85 846.9,545.3 744.88,539.95 732.39,473.52 760.19,431.43 805.36,403.52 869.56,403 915.95,446.65    925.13,496  "/>
	<path class="st2" d="M259.8,540.93c0,0,48.6-4.7,70.55-6.27c21.95-1.57,422.49,5.49,422.49,5.49s-6.27-41.49,0-66.99   c6.27-25.5,45.46-72.53,90.93-66.26s70.55,32.92,76.82,75.25c6.27,42.33-4.7,54.87-4.7,54.87s9.41,0,18.81-3.14   c9.41-3.14,18.81-6.27,18.81-6.27l20.38-4.7l6.27-61.14c0,0-67.41-59.57-111.31-70.55c-43.9-10.97-65.84-7.84-65.84-7.84   l-34.49-4.7c0,0-50.17,4.7-68.98-4.7c-18.81-9.41-68.98-39.19-103.47-53.3c-34.49-14.11-67.41-21.95-112.87-25.08   s-97.2,3.14-175.58,12.54c-78.38,9.41-213.21,53.3-213.21,53.3s-42.33,0-40.76,4.7c1.57,4.7,7.84,6.27,4.7,12.54   s-10.97,21.95-10.97,21.95l-1.57,39.19l-3.14,9.41c0,0,1.57,18.81,3.14,25.08c1.57,6.27,4.7,17.24,4.7,17.24l4.7-28.22l17.24,1.57   c0,0-1.57,23.52,0,36.06c1.57,12.54,6.27,20.38,6.27,20.38H89.7c0,0-14.11-34.49-3.14-62.71s32.92-54.87,68.98-58   s79.95,12.54,95.63,54.87S259.8,540.93,259.8,540.93z"/>
	<path class="st3" d="M686.33,383.13c0,0-25.06-20.12-61.99-39.61c-30.32-16.01-68.66-31.6-107.7-35.29   c-86.6-8.19-117.03-2.34-117.03-2.34s-100.65,16.38-122.88,21.07c-22.24,4.68-29.26,7.02-29.26,7.02s14.04,12.87,21.07,15.21   c7.02,2.34,168.52,21.07,234.06,24.58c28.79,1.54,67.77,5.86,102.4,7.61C649.19,383.61,686.33,383.13,686.33,383.13z"/>
	<path class="st4" d="M709.15,533.51c0,0-346.41-19.9-378.01-14.04s-56.17,16.38-56.17,16.38"/>
	<path class="st5" d="M979.49,463.29l-39.79-5.85l10.18,33.59c0.96,3.16,3.36,5.69,6.47,6.8l11.43,4.08l8.77,2.09   C976.56,504,979.42,463.59,979.49,463.29z"/>
	<path class="st0" d="M933.5,425.27c-0.83-0.6-16.04-4.11-16.04-4.11l17.55,24.58l35.21,7.6"/>
	<path class="st6" d="M938.25,430.62c-0.53-0.38-10.22-2.62-10.22-2.62l11.19,15.66l22.44,4.85"/>
	<path class="st7" d="M93.57,362.65c0,0,56.17-2.34,126.39,2.34c70.22,4.68,158.8,21.3,158.8,21.3S296.56,358,219.56,352   S93.57,362.65,93.57,362.65z"/>
	<path class="st8" d="M740.74,517.13c-1.17-38.62,3.51-56.17,18.72-79.58c15.21-23.41,51.49-40.96,77.24-39.79   c25.75,1.17,58.52,12.87,78.41,40.96c19.9,28.09,17.55,84.26,17.55,84.26l25.14,3.63l-17.02,5.2l-15.24,4.04l-7.91,0.99l-1.77,0.18   c0,0,8.21-13.37,6.45-36.69c-1.77-23.32-9.05-44.78-9.05-44.78S904.56,437,895.56,429s-32-20-48-22s-31.89,1.48-43.45,7.74   C792.56,421,776.56,433,768.56,443s-13.92,23.3-15.96,31.15c-2.04,7.85-3.04,25.85-3.04,25.85l1.14,29.42l-9.14-0.42L740.74,517.13   z"/>
	<path class="st8" d="M76.01,456.27c0,0,18.72-50.32,60.12-60.86c41.4-10.53,75.63-2.34,103.72,23.41   c17.33,15.89,25.3,43.8,28.87,62.86c2.51,13.41,2.12,27.24-1.47,40.4c-2.22,8.15-4.7,12.42-5.7-3.08c-2-31-6.2-50.36-6.2-50.36   s-7.81-30.22-26.81-45.93c-18.99-15.71-39.48-19.69-46.74-21.2c-7.26-1.51-32.5-4.28-55.38,7.11   c-22.88,11.38-34.07,37.15-34.48,36.77c-0.4-0.38-8.4,23.62-8.4,23.62s-3,15-1,26s6,26,6,26l-10,1c0,0-7-17-7-25   s0.11-25.15,0.55-25.57s0.35-6.53,0.35-6.53L76.01,456.27z"/>
	<path class="st7" d="M683.56,376c0,0-31.73-20.96-53.87-32.48C607.56,332,591.56,325,591.56,325s52.53,19.77,95.77,46.38   C730.56,398,683.56,376,683.56,376z"/>
	<path class="st0" d="M684.13,382.54c0,0-66.27-43.08-104.89-54.89s-115.86-23.52-173.2-17.67s-133.31,28.45-129.27,33.53   s31.28,11.14,31.28,11.14l107.92,11.86l157.71,12.87L674.56,384L684.13,382.54z"/>
	<path class="st0" d="M756.42,416.61c0,0-47.57,0.13-48.01,0c-0.44-0.13,1.9,2.21,1.9,2.21l29.26,2.34l3.85,6.13"/>
	<path class="st0" d="M49.1,400.1c0,0,15.21-5.85,23.41-10.53c8.19-4.68,16.38-9.36,16.38-9.36s-24.17-8.71-31-8.23   c-0.33,0.02,0.95,5.28,0.95,5.28l-9.74,18.47V400.1z"/>
	<path class="st9" d="M69.58,462.11l-14.63-1.93L45.56,451l5-14v-33l38-19l44.95,7.02C133.5,392.02,88.6,400.21,69.58,462.11z"/>
	<path class="st10" d="M913.56,420c0,0-19-18-48-27s-69-4-69-4s45.98,1.41,68.49,8.7C887.56,405,913.56,420,913.56,420z"/>
</g>
<g id="Layer_1">
	<path class="st11" d="M1024.22,373.81"/>
	<path class="st12" d="M686.33,383.13c0,0-25.06-20.12-61.99-39.61c-30.32-16.01-68.66-31.6-107.7-35.29   c-86.6-8.19-117.03-2.34-117.03-2.34s-100.65,16.38-122.88,21.07c-22.24,4.68-29.26,7.02-29.26,7.02s14.04,12.87,21.07,15.21   c7.02,2.34,168.52,21.07,234.06,24.58c28.79,1.54,67.77,5.86,102.4,7.61C649.19,383.61,686.33,383.13,686.33,383.13z"/>
	<g>
		<path class="st13" d="M957.81,526.61l-25.16-3.5c0,0-0.11-0.02-0.11-0.02s0-0.12,0-0.12c0.22-21.9-1.59-44.21-8.45-65.11    c-11.56-35.52-48.96-56.76-84.77-59.44c-7.28-0.6-14.6,0.17-21.7,1.84c-24.47,6.11-48.54,20.46-61.24,42.81    c-5.7,9.36-10.21,19.55-12.56,30.28c-3.23,14.33-3.37,29.15-3.08,43.78c-0.24-7.33-0.32-14.68,0-22.02    c0.56-14.66,3.25-29.45,9.87-42.66c3.22-6.59,7-12.99,11.33-18.91c9.05-11.69,21.47-20.37,34.7-26.73    c13.28-6.23,27.96-10.46,42.75-9.35c14.71,1.04,29.17,5.19,42.25,11.98c16.19,8.53,30.75,21.4,38.94,37.97    c4.75,9.99,7.5,20.8,9.35,31.66c2.32,14.25,3.52,29.95,2.76,43.78C932.69,522.85,957.81,526.61,957.81,526.61L957.81,526.61z"/>
	</g>
	<g>
		<path class="st13" d="M565.2,398.93c49.75,2.78,148.9,8.46,198.63,11.39c-3.91,3.7-7.92,7.29-12.03,10.77    c-5.96,4.79-11.77,10.1-18.97,12.99c-2.14,0.74-5.51,0.13-7.75,0.12c-5.09-0.32-10.18-0.69-15.27-1.07    C571,422.07,421.93,408.18,283.16,395.42c81.47,7.15,287.13,25.17,365.74,31.84c25.4,2.14,50.8,4.4,76.23,6.14    c0,0,3.81,0.21,3.81,0.21c3.89,0.5,7.12-1.82,10.28-3.82c8.41-5.71,16.06-12.52,23.52-19.42c0,0,0.22,0.61,0.22,0.61    C713.67,408.07,614.47,402.01,565.2,398.93L565.2,398.93z"/>
	</g>
	<g>
		<path class="st13" d="M271.45,501.91c-2.8-27.82-10.92-63.14-31.92-82.87c-1.19-1.05-4.01-3.44-5.14-4.43    c-1.14-0.88-4.18-3.21-5.39-4.13c-1.77-1.24-3.83-2.56-5.63-3.79c-1.25-0.76-4.54-2.65-5.86-3.42c-1.37-0.69-4.75-2.36-6.07-3.02    c-18.6-8.43-39.59-10.51-59.72-7.55c-10.35,1.66-20.96,3.7-30.22,8.83c-16.01,8.68-28.18,23.04-37.39,38.52    c-3.05,5.22-5.84,10.61-8.1,16.22c2.19-5.65,4.9-11.08,7.89-16.35c9-15.72,21.22-30.18,37.29-38.98c9.32-5.21,20-7.32,30.42-9.04    c20.25-3.07,41.5-1.13,60.21,7.53c1.33,0.65,4.75,2.39,6.11,3.07c1.3,0.79,4.62,2.68,5.89,3.48c1.8,1.25,3.87,2.58,5.65,3.85    c1.15,0.92,4.28,3.26,5.41,4.18c1.19,1.01,3.96,3.46,5.15,4.48C261.32,438.84,268.98,473.51,271.45,501.91L271.45,501.91z"/>
	</g>
	<path class="st14" d="M154.42,400.1c0-1.17-15.21-11.7-15.21-11.7s-62.45-8.41-80.96-15.91"/>
	<path class="st15" d="M49.1,400.1c0,0,15.21-5.85,23.41-10.53c8.19-4.68,16.38-9.36,16.38-9.36s-24.55-5.92-31-8.23"/>
	<path class="st15" d="M54.95,463.29c0,0-8.72-4.92-11.97-10.65"/>
	<path class="st11" d="M769.15,378.76c0,0-157.14-62.92-198.1-75.8c-40.96-12.87-93.62-16.38-170.86-10.53   s-121.68,20.21-121.68,20.21"/>
	<polygon points="640.1,382.54 625.04,343.89 619.28,340.89 635.42,382.54  "/>
	<polygon points="426.8,367.58 406.32,305.04 399.6,305.89 419.5,366.87  "/>
	<g>
		<path d="M684.13,382.54c-16.27-10.31-32.84-20.14-49.75-29.33c-16.9-9.13-34.08-18.08-52.3-24.25    c-18.32-5.86-37.28-9.56-56.25-12.68c-33.21-5.24-66.98-8.19-100.61-7.13c-24.04,0.79-47.9,4.76-71.41,9.66    c-23.46,5.15-47.01,10.71-69.41,19.48c-2.58,1.24-5.86,2.24-7.57,4.5c-0.28,0.5,0.29,0.92,0.71,1.31    c4.85,3.54,10.89,5.03,16.54,6.88c4.62,1.37,9.27,2.59,13.96,3.68c-4.7-1.05-9.37-2.23-14-3.56c-4.61-1.36-9.24-2.77-13.6-4.87    c-1.34-0.69-2.72-1.42-3.75-2.56c-2.37-3.22,18.49-9.76,21.11-10.75c27.51-8.88,55.77-15.36,84.26-20.11    c14.21-2.34,28.71-4.01,43.11-4.52c33.7-1.23,67.53,1.81,100.77,7.18c18.99,3.18,37.96,6.94,56.32,12.87    C618.58,341.45,651.62,362.09,684.13,382.54L684.13,382.54z"/>
	</g>
	<g>
		<path class="st13" d="M378.76,386.29c-50.02-8.6-100.29-16.18-150.9-20.22c-44.65-3.4-89.52-4.41-134.29-3.42    c44.77-1.73,89.68-0.68,134.36,2.46C278.56,369.26,328.85,376.96,378.76,386.29L378.76,386.29z"/>
	</g>
	<g>
		<path class="st13" d="M709.15,533.51c-117.96-5.46-244-13.84-361.54-14.76c-6.5,0.16-13.99,0.24-20.32,1.73    c-17.84,3.54-35.42,8.61-52.31,15.38c16.85-6.92,34.39-12.15,52.22-15.86c6.36-1.53,13.87-1.63,20.41-1.81    C467.44,518.7,589.39,526.86,709.15,533.51L709.15,533.51z"/>
	</g>
	<path class="st11" d="M102.93,534.68c0,0-43.3-4.68-49.15-11.7c-5.85-7.02-15.21-33.94-16.38-47.98   c-1.17-14.04-1.17-21.07-1.17-21.07l5.85-3.51"/>
	<g>
		<path class="st13" d="M979.49,463.29c-8.89-1.09-21.03-2.73-29.91-3.96c0,0-9.95-1.43-9.95-1.43l0.52-0.6    c2.43,7.86,5.83,19.27,8.22,27.28c0,0,2,6.82,2,6.82c0.74,2.17,2.26,4.08,4.23,5.29c1.72,1.08,4.64,1.87,6.53,2.68    c0,0,6.66,2.54,6.66,2.54l-6.76-2.25c0,0-3.38-1.14-3.38-1.14c-7.39-1.97-8.1-7.34-10.1-13.7c-2.44-8.03-5.97-19.31-8.3-27.25    c0,0-0.21-0.71-0.21-0.71l0.73,0.11C952.23,458.84,967.06,461.17,979.49,463.29L979.49,463.29z"/>
	</g>
	<path class="st12" d="M933.5,425.27c-0.83-0.6-16.04-4.11-16.04-4.11l17.55,24.58l35.21,7.6"/>
	<g>
		<path d="M690.46,369.21c-2.81,3.67-6.1,6.86-9.87,9.55C683.4,375.09,686.7,371.9,690.46,369.21L690.46,369.21z"/>
	</g>
	<g>
		<path class="st8" d="M808.62,384.88c-29.23,3.17-69.18,7.17-98.43,10.13c-4.1,0.46-12.33,1.19-16.44,1.44    c-38.44,1.8-76.99,0.71-115.44,0c-10.99-0.31-21.98-0.65-32.97-1.04c10.99,0.23,21.98,0.41,32.98,0.55    c38.44,0.58,76.96,1.2,115.38-0.43C729.35,392.69,772.92,387.91,808.62,384.88L808.62,384.88z"/>
	</g>
	<g class="right-circle-disk">
		<circle class="st16" cx="836.95" cy="492.97" r="79"/>
		<circle class="st17" cx="835.78" cy="491.8" r="64.37"/>
		<circle class="st18" cx="835.78" cy="491.5" r="60.56"/>
		<circle class="st16" cx="836.95" cy="492.09" r="54.13"/>
		<circle class="st17" cx="836.61" cy="491.5" r="44.18"/>
		<g>
			<path class="st18  right-circle-disk" d="M899.9,486.12l-27.65-2.31c-1.92-0.16-3.86-0.07-5.76,0.28c-5.01,0.93-14.08,3.37-14.08,8.87     c0,6.26,12.11,11.33,16.41,12.93c0.9,0.34,1.83,0.59,2.78,0.75l25.62,4.4l-1.78,4.95c0,0-27.18-3.3-30.25,0     c-3.08,3.3,6.21,29.41,6.21,29.41s-5.43,2.9-5.02,3.02s-15.98-37.33-15.98-37.33s-2.34-4.68-9.36-4.68     c-5.01,0-6.33,4.89-6.67,7.69c-0.12,0.95-0.12,1.91-0.02,2.87l3.72,39.13c0,0-4.48,0.54-4.26,0c0.21-0.54-5.64-30.97-9.15-32.14     c-3.51-1.17-30.93,16.55-30.93,16.55l-4.07-3.83l29.57-22.11c2.56-1.92,4.55-4.51,5.69-7.51c1.16-3.06,1.86-6.73-0.26-8.85     c-1.43-1.43-3.3-2.3-5.12-2.81c-3.35-0.94-6.93-0.54-10.09,0.92l-34.69,16.01l-1.26-4.22c0,0,30.09-14.57,30.09-19.26     c0-4.68-26.63-23.27-26.63-23.27l2.76-5.47l27.38,20.54c0,0,11.12,7.61,17.55,1.17c3.49-3.49,2.85-8,1.54-11.41     c-0.94-2.44-2.4-4.64-4.17-6.56l-20.53-22.3l4.83-3c0,0,18.34,18.7,24.19,18.7s13.01-25.84,13.01-25.84l6.34,1.16l-11.3,29.77     c-1.36,3.58-0.77,7.69,1.75,10.57c1.08,1.24,2.47,2.37,4.24,3.07c2.68,1.07,6.09,0.18,9.01-1.1c3.69-1.62,6.7-4.47,8.65-7.99     l12.22-22.02l5.08,4.73c0,0-12.72,20.54-11.55,22.88s31.09,7.46,31.09,7.46L899.9,486.12z"/>
			<path class="st19" d="M899.9,486.12c-1.9-0.13-27.67-2.33-28.61-2.35c-5.26-0.05-10.68,1.33-15.25,3.94     c-10.16,6.66,3.68,14.56,10,17.03c1.96,0.82,3.93,1.67,6.04,1.95l25.15,4.31c0,0,0.07,0.01,0.07,0.01s-0.02,0.06-0.02,0.06     s-1.77,4.95-1.77,4.95s-0.02,0.04-0.02,0.04s-0.05-0.01-0.05-0.01c-5.05-0.58-10.12-1.03-15.2-1.29     c-4.42-0.14-8.94-0.47-13.28,0.47c-0.6,0.16-1.23,0.36-1.67,0.79c-0.43,0.44-0.52,1.11-0.59,1.72c-0.15,1.89,0.18,3.8,0.5,5.66     c1.47,7.51,3.85,14.82,6.33,22.05c-1.69,0.96-3.5,1.8-5.06,2.97c0-0.01,0.02-0.04-0.03-0.08c0-0.04-0.22,0.09-0.14,0.07     c-1.75-4.7-6.46-15.22-8.48-20.04c0,0-5.54-12.71-5.54-12.71l-1.39-3.18c-0.43-1.08-0.93-2.08-1.78-2.89     c-2.4-2.43-6.14-3.44-9.47-2.89c-3.58,0.74-4.92,4.74-5.18,8c-0.15,2.02,0.34,4.85,0.48,6.89c0,0,0.66,6.9,0.66,6.9     s2.64,27.61,2.64,27.61s0.01,0.15,0.01,0.15c-0.81,0.1-1.63,0.18-2.44,0.23c-0.59,0.02-1.17,0.08-1.76-0.02     c-0.11-0.04-0.21,0-0.36-0.19c-0.04-0.06-0.04-0.13-0.02-0.19c-0.61-4.53-1.69-9.13-2.69-13.63c-1.5-5.86-2.61-12.03-5.47-17.4     c-0.71-1.64-2.51-0.71-3.85-0.26c-4.24,1.72-8.22,4.05-12.19,6.31c-5.28,3.07-10.49,6.29-15.63,9.59c0,0-0.13,0.08-0.13,0.08     s-0.11-0.11-0.11-0.11l-4.07-3.83c0,0-0.17-0.16-0.17-0.16c0.06-0.03,22.15-16.59,22.26-16.66c1.99-1.51,6.38-4.72,8.25-6.21     c2.62-2.18,4.5-5.18,5.41-8.47c0.58-2.08,0.96-4.59-0.35-6.45c-2.94-3.41-8.17-4.35-12.44-3.34c-2.21,0.5-4.22,1.66-6.32,2.58     c0,0-6.26,2.89-6.26,2.89l-25.03,11.54c0,0-0.25,0.12-0.25,0.12s-0.08-0.26-0.08-0.26l-1.26-4.22c0,0-0.06-0.19-0.06-0.19     s0.18-0.09,0.18-0.09c5.37-2.63,10.68-5.39,15.89-8.34c4.47-2.64,9.15-5.15,12.92-8.76c0.49-0.53,0.99-1.12,1.13-1.75     c0.11-0.63-0.32-1.3-0.7-1.9c-3.15-4.16-7.4-7.35-11.4-10.66c-4.68-3.72-9.5-7.28-14.38-10.74c0,0-0.14-0.1-0.14-0.1l0.08-0.15     c0,0,2.76-5.47,2.76-5.47s0.1-0.21,0.1-0.21s0.18,0.14,0.18,0.14l20.71,15.55c0,0,5.18,3.89,5.18,3.89     c4.49,3.4,10.82,6.26,16.38,4.01c7.36-3.52,5.41-12.62,1.13-17.89c-2.92-3.51-18.53-20.19-21.84-23.88c0,0-0.11-0.12-0.11-0.12     s0.14-0.09,0.14-0.09s4.83-2.99,4.83-2.99s0.09-0.05,0.09-0.05c3.58,3.61,7.28,7.11,11.12,10.43c2.87,2.45,5.8,4.88,9.05,6.81     c2.39,1.35,4.53,2.48,6.61-0.03c2.47-2.86,3.95-6.44,5.42-9.89c1.9-4.68,3.49-9.48,4.88-14.33l0.02-0.09c0,0,0.09,0.02,0.09,0.02     s6.34,1.16,6.34,1.16s0.11,0.02,0.11,0.02l-0.04,0.1l-8.42,22.17l-2.11,5.54c-0.71,1.83-1.49,3.68-1.48,5.67     c-0.16,3.98,2.27,7.76,5.79,9.54c5.13,2.57,12.31-1.2,15.86-5.07c2.98-3.04,12.42-21.96,14.88-25.63c0,0,5.07,4.73,5.07,4.73     s0.02,0.02,0.02,0.02s-0.02,0.03-0.02,0.03c-3.74,6.19-7.53,12.39-10.55,18.97c-0.45,1.22-1.23,2.53-1.02,3.86     c0.68,0.79,1.83,1.02,2.78,1.39c9.25,2.76,18.82,4.34,28.3,6.09C899.07,479.94,899.9,486.12,899.9,486.12L899.9,486.12z      M899.9,486.12l-0.84-6.17c-4.74-0.81-9.51-1.71-14.23-2.66c-4.72-0.99-9.47-1.94-14.08-3.39c-0.85-0.3-1.74-0.57-2.49-1.08     c-0.27-0.15-0.42-0.48-0.38-0.78c0.64-3.56,2.73-6.71,4.32-9.92c2.31-4.24,4.76-8.4,7.29-12.52c0.11,0.16-5.1-4.7-5.07-4.68     c0.24-0.14-11.49,20.74-11.43,20.73c-1.77,3.54-4.44,6.69-7.95,8.59c-3.4,1.73-7.72,3.36-11.37,1.43     c-3.57-1.8-6.03-5.63-5.88-9.67c-0.01-2.01,0.78-3.89,1.49-5.72c0,0,2.1-5.54,2.1-5.54l8.4-22.18c0,0,0.07,0.12,0.07,0.12     l-6.34-1.15c-0.97,4.37-3.01,9.72-4.76,14.29c-1.79,3.91-3.32,8.58-6.93,11.19c-3.45,1.96-11.69-5.77-14.51-7.98     c-3.6-3.23-8.11-7.09-10.91-10.34c0,0-4.82,3-4.82,3l0.03-0.2c3.43,3.81,18.92,20.35,21.88,23.88     c4.93,6.08,6.28,16.16-2.79,18.93c-5.38,1.1-10.96-1.36-15.17-4.58c0,0-5.18-3.88-5.18-3.88l-20.73-15.54l0.29-0.07     c0,0-2.76,5.47-2.76,5.47s-0.06-0.25-0.06-0.25c4.9,3.45,9.72,7.01,14.41,10.73c2.34,1.87,4.66,3.77,6.88,5.8     c1.89,1.82,3.99,3.58,5.2,5.96c2.04,3.41-11.41,10.34-14.05,12.04c-5.21,2.96-10.53,5.73-15.91,8.37l0.12-0.28l1.26,4.22     c0,0-0.33-0.15-0.33-0.15l25.02-11.56l6.26-2.88c1.93-0.83,4.37-2.19,6.42-2.61c4.48-1.03,9.79-0.09,12.92,3.53     c1.42,2.01,1.03,4.64,0.42,6.85c-1.16,4.59-4.44,8.22-8.31,10.78c-3.71,2.77-23.5,17.55-27.61,20.62c0,0,0.02-0.31,0.02-0.31     s4.07,3.84,4.07,3.84s-0.24-0.02-0.24-0.02c5.16-3.3,10.37-6.51,15.66-9.58c3.99-2.27,7.98-4.59,12.25-6.32     c1.06-0.31,2.36-1.07,3.46-0.49c0.36,0.24,0.59,0.58,0.81,0.9c1.57,2.68,2.35,5.67,3.24,8.61c2.02,7.39,3.74,14.86,4.93,22.43     c0.01,0.04,0.01,0.1,0,0.18c0,0.03-0.01,0.09-0.01,0.09c0.01-0.02,0-0.03-0.01-0.05c1.28,0.22,2.77-0.03,4.1-0.15     c-0.3,1.27-2.65-27.86-2.75-27.44c0,0-0.65-6.9-0.65-6.9c-0.13-2.09-0.62-4.86-0.47-6.93c0.26-3.35,1.69-7.48,5.39-8.23     c3.44-0.55,7.22,0.47,9.7,2.97c0.86,0.81,1.41,1.89,1.83,2.96c0,0,1.39,3.18,1.39,3.18l5.52,12.72     c2.02,4.84,6.69,15.25,8.47,20.08c0,0.02,0,0.01,0.01,0.05c0.09-0.01-0.15,0.15-0.16,0.09c-0.09-0.07-0.06-0.13-0.04-0.17     c1.53-1.23,3.37-2.03,5.07-3.01c0,0-0.04,0.11-0.04,0.11c-1.67-4.81-3.22-9.66-4.55-14.57c-0.97-3.69-1.94-7.41-2.24-11.23     c-0.02-1.24-0.21-2.69,0.64-3.73c1.01-0.86,2.38-0.97,3.63-1.17c3.8-0.44,7.64-0.28,11.45-0.11c4.98,0.3,10.46,0.66,15.14,1.35     c0,0,1.78-4.95,1.78-4.95s0.04,0.08,0.04,0.08s-25.15-4.33-25.15-4.33c-2.13-0.28-4.11-1.14-6.06-1.96     c-6.37-2.51-20.22-10.42-9.99-17.15c4.58-2.61,10.01-3.98,15.28-3.93C872.16,483.8,898.15,485.96,899.9,486.12L899.9,486.12z"/>
		</g>
		<circle class="st20" cx="836.95" cy="489.46" r="9.95"/>
		<circle cx="836.37" cy="488.87" r="7.13"/>
		<g>
			<path class="st21" d="M829.35,419.82c-22.72,4.54-44.72,17.84-55.58,38.82c-1.63,2.92-2.87,6.04-4.11,9.16     c1.97-6.41,4.89-12.57,8.78-18.09C790.12,433.13,809.47,422.69,829.35,419.82L829.35,419.82z"/>
		</g>
		<g>
			<path class="st21" d="M853.8,562.78c18.82-6.46,36.2-19.01,45.89-36.65c3.25-5.85,5.49-12.2,7.02-18.72     c-1.11,6.61-3.21,13.1-6.34,19.08C890.95,544.46,873.13,557.34,853.8,562.78L853.8,562.78z"/>
		</g>
		<g>
			<path class="st22" d="M906.25,454.85c-1.44,3.84-3.47,7.34-6.1,10.49C901.58,461.49,903.63,457.99,906.25,454.85L906.25,454.85z"/>
		</g>
		<g>
			<path class="st22" d="M811.46,554.49c-1.44,3.84-3.47,7.34-6.1,10.49C806.79,561.14,808.83,557.64,811.46,554.49L811.46,554.49z"/>
		</g>
		<g>
			<path class="st22" d="M800.92,548.64c-1.44,3.84-3.47,7.34-6.1,10.49C796.26,555.29,798.3,551.79,800.92,548.64L800.92,548.64z"/>
		</g>
		<g>
			<path class="st22" d="M790.39,541.62c-1.44,3.84-3.47,7.34-6.1,10.49C785.72,548.27,787.77,544.77,790.39,541.62L790.39,541.62z"/>
		</g>
		<g>
			<path class="st22" d="M823.16,559.17c-1.44,3.84-3.47,7.34-6.1,10.49C818.49,565.82,820.54,562.32,823.16,559.17L823.16,559.17z"/>
		</g>
		<g>
			<path d="M836.03,561.51c-1.44,3.84-3.47,7.34-6.1,10.49C831.37,568.16,833.41,564.66,836.03,561.51L836.03,561.51z"/>
		</g>
		<g>
			<path class="st22" d="M894.55,437.46c-1.44,3.84-3.47,7.34-6.1,10.49C889.88,444.11,891.93,440.61,894.55,437.46L894.55,437.46z"/>
		</g>
		<g>
			<path class="st22" d="M900.4,446.65c-1.44,3.84-3.47,7.34-6.1,10.49C895.73,453.3,897.78,449.8,900.4,446.65L900.4,446.65z"/>
		</g>
		<g>
			<path class="st22" d="M909.76,463.04c-1.44,3.84-3.47,7.34-6.1,10.49C905.1,469.69,907.14,466.18,909.76,463.04L909.76,463.04z"/>
		</g>
		<g>
			<path class="st22" d="M913.27,472.4c-1.44,3.84-3.47,7.34-6.1,10.49C908.61,479.05,910.65,475.55,913.27,472.4L913.27,472.4z"/>
		</g>
		<g>
			<path class="st23" d="M771.42,491.8c-0.26,25.44,16.2,49.85,39.91,59.04c41.57,16.83,87.47-14.25,87.32-59.04     c0.14-44.78-45.75-75.86-87.32-59.04C787.62,441.95,771.15,466.36,771.42,491.8L771.42,491.8z M771.42,491.8     c0.43-57.78,69.22-86.65,110.8-46.43c25.81,25.01,25.8,67.84-0.01,92.85C840.63,578.43,771.85,549.58,771.42,491.8L771.42,491.8z     "/>
		</g>
	</g>
	<g class="left-circle-disk">
		<circle class="st16" cx="170.95" cy="483.97" r="79"/>
		<circle class="st17" cx="169.78" cy="482.8" r="64.37"/>
		<circle class="st18" cx="169.78" cy="482.5" r="60.56"/>
		<circle class="st16" cx="170.95" cy="483.09" r="54.13"/>
		<circle class="st17" cx="170.61" cy="482.5" r="44.18"/>
		<g> 
			<path class="st18 left-circle-disk" d="M233.9,477.12l-27.65-2.31c-1.92-0.16-3.86-0.07-5.76,0.28c-5.01,0.93-14.08,3.37-14.08,8.87     c0,6.26,12.11,11.33,16.41,12.93c0.9,0.34,1.83,0.59,2.78,0.75l25.62,4.4l-1.78,4.95c0,0-27.18-3.3-30.25,0     c-3.08,3.3,6.21,29.41,6.21,29.41s-5.43,2.9-5.02,3.02s-15.98-37.33-15.98-37.33s-2.34-4.68-9.36-4.68     c-5.01,0-6.33,4.89-6.67,7.69c-0.12,0.95-0.12,1.91-0.02,2.87l3.72,39.13c0,0-4.48,0.54-4.26,0c0.21-0.54-5.64-30.97-9.15-32.14     c-3.51-1.17-30.93,16.55-30.93,16.55l-4.07-3.83l29.57-22.11c2.56-1.92,4.55-4.51,5.69-7.51c1.16-3.06,1.86-6.73-0.26-8.85     c-1.43-1.43-3.3-2.3-5.12-2.81c-3.35-0.94-6.93-0.54-10.09,0.92l-34.69,16.01l-1.26-4.22c0,0,30.09-14.57,30.09-19.26     c0-4.68-26.63-23.27-26.63-23.27l2.76-5.47l27.38,20.54c0,0,11.12,7.61,17.55,1.17c3.49-3.49,2.85-8,1.54-11.41     c-0.94-2.44-2.4-4.64-4.17-6.56l-20.53-22.3l4.83-3c0,0,18.34,18.7,24.19,18.7c5.85,0,13.01-25.84,13.01-25.84l6.34,1.16     l-11.3,29.77c-1.36,3.58-0.77,7.69,1.75,10.57c1.08,1.24,2.47,2.37,4.24,3.07c2.68,1.07,6.09,0.18,9.01-1.1     c3.69-1.62,6.7-4.47,8.65-7.99l12.22-22.02l5.08,4.73c0,0-12.72,20.54-11.55,22.88s31.09,7.46,31.09,7.46L233.9,477.12z"/>
			<path class="st19" d="M233.9,477.12c-1.9-0.13-27.67-2.33-28.61-2.35c-5.26-0.05-10.68,1.33-15.25,3.94     c-10.16,6.66,3.68,14.56,10,17.03c1.96,0.82,3.93,1.67,6.04,1.95c0,0,25.15,4.31,25.15,4.31s0.07,0.01,0.07,0.01     s-0.02,0.06-0.02,0.06s-1.77,4.95-1.77,4.95s-0.02,0.04-0.02,0.04s-0.05-0.01-0.05-0.01c-5.05-0.58-10.12-1.03-15.2-1.29     c-4.42-0.14-8.94-0.47-13.28,0.47c-0.6,0.16-1.23,0.36-1.67,0.79c-0.43,0.44-0.52,1.11-0.59,1.72c-0.15,1.89,0.18,3.8,0.5,5.66     c1.47,7.51,3.85,14.82,6.33,22.05c-1.69,0.96-3.5,1.8-5.06,2.97c0-0.01,0.02-0.04-0.03-0.08c0-0.04-0.22,0.09-0.14,0.07     c-1.75-4.7-6.46-15.22-8.48-20.04c0,0-5.54-12.71-5.54-12.71s-1.39-3.18-1.39-3.18c-0.43-1.08-0.93-2.09-1.78-2.89     c-2.4-2.43-6.14-3.44-9.47-2.89c-3.58,0.74-4.92,4.74-5.18,8c-0.15,2.02,0.34,4.85,0.47,6.89c0,0,0.66,6.9,0.66,6.9     s2.64,27.61,2.64,27.61s0.01,0.15,0.01,0.15c-0.81,0.1-1.63,0.18-2.44,0.23c-0.59,0.02-1.17,0.08-1.76-0.02     c-0.11-0.04-0.21,0-0.36-0.19c-0.04-0.06-0.04-0.13-0.02-0.19c-0.61-4.53-1.69-9.13-2.69-13.63c-1.5-5.86-2.61-12.03-5.47-17.4     c-0.71-1.64-2.51-0.71-3.85-0.26c-4.24,1.72-8.22,4.05-12.19,6.31c-5.28,3.07-10.49,6.29-15.63,9.59c0,0-0.13,0.08-0.13,0.08     s-0.11-0.11-0.11-0.11s-4.07-3.83-4.07-3.83s-0.17-0.16-0.17-0.16c0.06-0.03,22.15-16.59,22.26-16.66     c1.99-1.51,6.38-4.72,8.25-6.21c2.62-2.18,4.5-5.18,5.41-8.47c0.58-2.08,0.96-4.59-0.35-6.45c-2.94-3.41-8.17-4.35-12.44-3.34     c-2.21,0.5-4.22,1.66-6.32,2.58c0,0-6.26,2.89-6.26,2.89s-25.03,11.54-25.03,11.54s-0.25,0.12-0.25,0.12s-0.08-0.26-0.08-0.26     s-1.26-4.22-1.26-4.22l-0.06-0.19c0,0,0.18-0.09,0.18-0.09c5.37-2.63,10.68-5.39,15.89-8.34c4.47-2.64,9.15-5.15,12.92-8.76     c0.49-0.53,0.99-1.12,1.13-1.75c0.11-0.63-0.32-1.3-0.7-1.9c-3.15-4.16-7.4-7.35-11.4-10.66c-4.68-3.72-9.5-7.28-14.38-10.74     c0,0-0.14-0.1-0.14-0.1s0.08-0.15,0.08-0.15s2.76-5.47,2.76-5.47s0.1-0.21,0.1-0.21s0.18,0.14,0.18,0.14l20.71,15.55l5.18,3.89     c4.49,3.4,10.82,6.26,16.38,4.01c7.36-3.52,5.41-12.62,1.13-17.89c-2.92-3.51-18.53-20.19-21.84-23.88c0,0-0.11-0.12-0.11-0.12     s0.14-0.09,0.14-0.09s4.83-2.99,4.83-2.99s0.09-0.05,0.09-0.05c3.58,3.61,7.28,7.11,11.12,10.43c2.87,2.45,5.8,4.88,9.05,6.81     c2.39,1.35,4.53,2.48,6.61-0.03c2.47-2.86,3.95-6.44,5.42-9.89c1.9-4.68,3.49-9.48,4.88-14.33c0,0,0.02-0.09,0.02-0.09     s0.09,0.02,0.09,0.02s6.34,1.16,6.34,1.16s0.11,0.02,0.11,0.02s-0.04,0.1-0.04,0.1l-8.42,22.17c0,0-2.11,5.54-2.11,5.54     c-0.71,1.83-1.49,3.68-1.48,5.67c-0.16,3.98,2.27,7.76,5.79,9.54c5.13,2.57,12.31-1.2,15.86-5.07     c2.98-3.04,12.42-21.96,14.88-25.63c0,0,5.07,4.73,5.07,4.73s0.02,0.02,0.02,0.02s-0.02,0.03-0.02,0.03     c-3.74,6.19-7.53,12.39-10.55,18.97c-0.45,1.22-1.23,2.53-1.02,3.86c0.68,0.79,1.83,1.02,2.78,1.39     c9.25,2.76,18.82,4.34,28.3,6.09C233.07,470.94,233.9,477.12,233.9,477.12L233.9,477.12z M233.9,477.12l-0.84-6.17     c-4.74-0.81-9.51-1.71-14.23-2.66c-4.72-0.99-9.47-1.94-14.08-3.39c-0.85-0.3-1.74-0.57-2.49-1.08     c-0.27-0.15-0.42-0.48-0.38-0.78c0.64-3.56,2.73-6.71,4.32-9.92c2.31-4.24,4.76-8.4,7.29-12.52c0.11,0.16-5.1-4.7-5.07-4.68     c0.24-0.14-11.49,20.74-11.43,20.73c-1.77,3.54-4.44,6.69-7.95,8.59c-3.4,1.73-7.72,3.36-11.37,1.43     c-3.57-1.8-6.03-5.63-5.88-9.67c-0.01-2.01,0.78-3.89,1.49-5.72c0,0,2.1-5.54,2.1-5.54s8.4-22.18,8.4-22.18l0.07,0.12l-6.34-1.15     c-0.97,4.37-3.01,9.72-4.76,14.29c-1.79,3.91-3.32,8.58-6.93,11.19c-3.45,1.96-11.69-5.77-14.51-7.98     c-3.6-3.23-8.11-7.09-10.91-10.34c0,0-4.82,3-4.82,3s0.03-0.2,0.03-0.2c3.43,3.81,18.92,20.35,21.88,23.88     c4.93,6.08,6.28,16.16-2.79,18.93c-5.38,1.1-10.96-1.36-15.17-4.58c0,0-5.18-3.88-5.18-3.88l-20.73-15.54     c0,0,0.29-0.07,0.29-0.07s-2.76,5.47-2.76,5.47s-0.06-0.25-0.06-0.25c4.9,3.45,9.72,7.01,14.41,10.73     c2.34,1.87,4.66,3.77,6.88,5.8c1.89,1.82,3.99,3.58,5.2,5.96c2.04,3.41-11.41,10.34-14.05,12.04     c-5.21,2.96-10.53,5.73-15.91,8.37l0.12-0.28c0,0,1.26,4.22,1.26,4.22s-0.33-0.15-0.33-0.15l25.02-11.56l6.26-2.88     c1.93-0.83,4.37-2.19,6.42-2.61c4.48-1.03,9.79-0.09,12.92,3.53c1.42,2.01,1.03,4.64,0.42,6.85c-1.16,4.59-4.44,8.22-8.31,10.78     c-3.71,2.77-23.5,17.55-27.61,20.62c0,0,0.02-0.31,0.02-0.31s4.07,3.84,4.07,3.84s-0.24-0.02-0.24-0.02     c5.16-3.3,10.37-6.51,15.66-9.58c3.99-2.27,7.98-4.59,12.25-6.32c1.06-0.31,2.36-1.07,3.46-0.49c0.36,0.24,0.59,0.58,0.81,0.9     c1.57,2.68,2.35,5.67,3.24,8.61c2.02,7.39,3.74,14.86,4.93,22.43c0.01,0.04,0.01,0.1,0,0.18c0,0.03-0.01,0.09-0.01,0.09     c0.01-0.02,0-0.03-0.01-0.05c1.28,0.22,2.77-0.03,4.1-0.15c-0.3,1.27-2.65-27.86-2.75-27.44c0,0-0.65-6.9-0.65-6.9     c-0.13-2.09-0.62-4.86-0.47-6.93c0.26-3.35,1.69-7.48,5.39-8.23c3.44-0.55,7.22,0.47,9.7,2.97c0.86,0.81,1.41,1.89,1.83,2.96     c0,0,1.39,3.18,1.39,3.18l5.52,12.72c2.02,4.84,6.69,15.25,8.47,20.08c0,0.02,0,0.01,0.01,0.05c0.09-0.01-0.15,0.15-0.16,0.09     c-0.09-0.07-0.06-0.13-0.04-0.17c1.53-1.23,3.37-2.03,5.07-3.01c0,0-0.04,0.11-0.04,0.11c-1.67-4.81-3.22-9.66-4.55-14.57     c-0.97-3.69-1.94-7.41-2.24-11.23c-0.02-1.24-0.21-2.69,0.64-3.73c1.01-0.86,2.38-0.97,3.63-1.17c3.8-0.44,7.64-0.28,11.45-0.11     c4.98,0.3,10.46,0.66,15.14,1.35c0,0,1.78-4.95,1.78-4.95s0.04,0.08,0.04,0.08s-25.15-4.33-25.15-4.33     c-2.13-0.28-4.11-1.14-6.06-1.96c-6.37-2.51-20.22-10.42-9.99-17.15c4.58-2.61,10.01-3.98,15.28-3.93     C206.16,474.8,232.15,476.96,233.9,477.12L233.9,477.12z"/>
		</g>
		<circle class="st20" cx="170.95" cy="480.46" r="9.95"/>
		<circle cx="170.37" cy="479.87" r="7.13"/>
		<g>
			<path class="st21" d="M163.35,410.82c-22.72,4.54-44.72,17.84-55.58,38.82c-1.63,2.92-2.87,6.04-4.11,9.16     c1.97-6.41,4.89-12.57,8.78-18.09C124.12,424.13,143.47,413.69,163.35,410.82L163.35,410.82z"/>
		</g>
		<g>
			<path class="st21" d="M187.8,553.78c18.82-6.46,36.2-19.01,45.89-36.65c3.25-5.85,5.49-12.2,7.02-18.72     c-1.11,6.61-3.21,13.1-6.34,19.08C224.95,535.46,207.13,548.34,187.8,553.78L187.8,553.78z"/>
		</g>
		<g>
			<path class="st22" d="M240.25,445.85c-1.44,3.84-3.47,7.34-6.1,10.49C235.58,452.49,237.63,448.99,240.25,445.85L240.25,445.85z"/>
		</g>
		<g>
			<path class="st22" d="M145.46,545.49c-1.44,3.84-3.47,7.34-6.1,10.49C140.79,552.14,142.83,548.64,145.46,545.49L145.46,545.49z"/>
		</g>
		<g>
			<path class="st22" d="M134.92,539.64c-1.44,3.84-3.47,7.34-6.1,10.49C130.26,546.29,132.3,542.79,134.92,539.64L134.92,539.64z"/>
		</g>
		<g>
			<path class="st22" d="M124.39,532.62c-1.44,3.84-3.47,7.34-6.1,10.49C119.72,539.27,121.77,535.77,124.39,532.62L124.39,532.62z"/>
		</g>
		<g>
			<path class="st22" d="M157.16,550.17c-1.44,3.84-3.47,7.34-6.1,10.49C152.49,556.82,154.54,553.32,157.16,550.17L157.16,550.17z"/>
		</g>
		<g>
			<path d="M170.03,552.51c-1.44,3.84-3.47,7.34-6.1,10.49C165.37,559.16,167.41,555.66,170.03,552.51L170.03,552.51z"/>
		</g>
		<g>
			<path class="st22" d="M228.55,428.46c-1.44,3.84-3.47,7.34-6.1,10.49C223.88,435.11,225.93,431.61,228.55,428.46L228.55,428.46z"/>
		</g>
		<g>
			<path class="st22" d="M234.4,437.65c-1.44,3.84-3.47,7.34-6.1,10.49C229.73,444.3,231.78,440.8,234.4,437.65L234.4,437.65z"/>
		</g>
		<g>
			<path class="st22" d="M243.76,454.04c-1.44,3.84-3.47,7.34-6.1,10.49C239.1,460.69,241.14,457.18,243.76,454.04L243.76,454.04z"/>
		</g>
		<g>
			<path class="st22" d="M247.27,463.4c-1.44,3.84-3.47,7.34-6.1,10.49C242.61,470.05,244.65,466.55,247.27,463.4L247.27,463.4z"/>
		</g>
		<g>
			<path class="st23" d="M105.42,482.8c-0.26,25.44,16.2,49.85,39.91,59.04c41.57,16.83,87.47-14.25,87.32-59.04     c0.14-44.78-45.75-75.86-87.32-59.04C121.62,432.95,105.15,457.36,105.42,482.8L105.42,482.8z M105.42,482.8     c0.43-57.78,69.22-86.65,110.8-46.43c25.81,25.01,25.8,67.84,0,92.85C174.63,569.43,105.85,540.58,105.42,482.8L105.42,482.8z"/>
		</g>
	</g>
	<path class="st24" d="M259.8,540.93c0,0,48.6-4.7,70.55-6.27c21.95-1.57,422.49,5.49,422.49,5.49s-6.27-41.49,0-66.99   c6.27-25.5,45.46-72.53,90.93-66.26s70.55,32.92,76.82,75.25c6.27,42.33-4.7,54.87-4.7,54.87s9.41,0,18.81-3.14   c9.41-3.14,18.81-6.27,18.81-6.27l20.38-4.7l6.27-61.14c0,0-67.41-59.57-111.31-70.55c-43.9-10.97-65.84-7.84-65.84-7.84   l-34.49-4.7c0,0-50.17,4.7-68.98-4.7c-18.81-9.41-68.98-39.19-103.47-53.3c-34.49-14.11-67.41-21.95-112.87-25.08   s-97.2,3.14-175.58,12.54c-78.38,9.41-213.21,53.3-213.21,53.3s-42.33,0-40.76,4.7c1.57,4.7,7.84,6.27,4.7,12.54   s-10.97,21.95-10.97,21.95l-1.57,39.19l-3.14,9.41c0,0,1.57,18.81,3.14,25.08c1.57,6.27,4.7,17.24,4.7,17.24l4.7-28.22l17.24,1.57   c0,0-1.57,23.52,0,36.06c1.57,12.54,6.27,20.38,6.27,20.38H89.7c0,0-14.11-34.49-3.14-62.71s32.92-54.87,68.98-58   s79.95,12.54,95.63,54.87S259.8,540.93,259.8,540.93z"/>
	<path class="st14" d="M750.69,529.42l-279.56-16.51c-10.97-0.65-20.74-7.19-25.5-17.1c-13.04-27.12-37.84-80.09-37.84-90.45   c0-14.04,8.18-38.85,8.18-38.85"/>
	<g>
		<path class="st25" d="M687.32,383.13c0.04,0.03,14.7,12.1,14.74,12.13c1.1,2.6,1.35,5.39,1.79,8.14    c1.08,8.17,1.52,16.4,1.83,24.63c0.72,21.93,0.63,43.89-0.57,65.8c-0.69,10.94-1.45,21.93-3.64,32.68    c1.89-10.8,2.37-21.79,2.94-32.72c0.92-30.07,1.6-60.32-1.16-90.31c-0.31-2.56-0.76-5.72-1.53-7.88    C701.7,395.61,687.32,383.13,687.32,383.13L687.32,383.13z"/>
	</g>
</g>
</svg>